<svg version="1.1" id="Layer_1" xmlns="http://www.w3.org/2000/svg" xmlns:xlink="http://www.w3.org/1999/xlink" x="0px" y="0px"
	 width="100%" viewBox="0 0 700 702" enable-background="new 0 0 700 702" xml:space="preserve">
<path fill="#000000" opacity="1.000000" stroke="none" 
	d="
M162.723877,596.998779 
	C145.295624,597.305481 128.389999,596.592712 111.805496,592.902893 
	C102.330399,590.794800 94.116142,586.409363 88.268669,577.942993 
	C81.759087,568.518066 82.649109,553.893494 91.171204,545.339722 
	C97.794464,538.691772 104.495689,532.120483 111.052414,525.407837 
	C114.734261,521.638428 118.412773,517.819702 121.610039,513.652832 
	C122.498489,512.494995 122.308830,509.662659 121.511963,508.198029 
	C116.753387,499.451721 111.377518,491.035309 106.758850,482.220001 
	C96.090523,461.858215 88.487518,440.256500 85.275314,417.561737 
	C82.931389,401.001526 81.896667,384.073578 82.284370,367.356079 
	C82.754089,347.102020 86.102425,327.031860 92.110725,307.533203 
	C100.595512,279.997650 113.631828,254.734375 131.489090,232.228500 
	C150.227844,208.611694 172.144775,188.318283 198.459717,173.124374 
	C219.194214,161.152542 241.238907,152.481155 264.566589,147.280319 
	C273.735962,145.236069 283.184631,144.462891 292.474030,142.917877 
	C293.789215,142.699127 295.313202,141.648590 296.078522,140.530075 
	C304.683716,127.953140 315.356262,120.151436 331.697449,119.679756 
	C347.552795,119.222115 364.102448,131.956757 368.375885,146.757111 
	C374.619110,168.379517 362.345947,191.067749 340.104004,195.593597 
	C327.672760,198.123184 314.834564,196.554184 305.313995,185.849319 
	C302.259949,182.415375 299.016571,179.149796 294.446594,174.310760 
	C285.524170,176.120712 274.667084,177.908127 264.026398,180.562866 
	C236.891922,187.332581 212.618591,200.202377 191.037323,217.692856 
	C171.336929,233.659012 155.007263,252.834396 142.008636,274.736267 
	C131.257339,292.851532 123.929474,312.343903 119.206757,332.764465 
	C117.346535,340.807892 116.694359,349.182526 116.085732,357.450043 
	C115.382179,367.007080 114.575218,376.658051 115.150452,386.187531 
	C116.549706,409.368164 121.432869,431.809753 130.617935,453.322815 
	C138.842926,472.587280 150.047531,489.990906 162.389832,506.719269 
	C165.727173,511.242523 164.973480,514.462891 161.506622,518.033020 
	C152.378906,527.432556 143.247147,536.829224 134.218979,546.323975 
	C129.485184,551.302368 124.965569,556.484436 119.512352,562.497314 
	C133.214600,563.022034 146.067108,564.632507 158.734802,563.708801 
	C173.709137,562.616882 188.844391,560.526794 203.307785,556.632935 
	C215.176880,553.437561 225.116013,554.863831 235.765106,560.116943 
	C250.089432,567.183105 265.362640,571.867920 281.278259,573.963318 
	C292.921082,575.496033 304.601898,577.617493 316.283386,577.735718 
	C328.337677,577.857727 340.622162,576.913025 352.425049,574.540283 
	C366.207031,571.769531 379.856903,567.706299 393.056854,562.830688 
	C410.961487,556.217285 427.433472,546.621582 442.114014,534.294250 
	C449.547607,528.052246 456.791595,521.539062 463.681427,514.705017 
	C474.930725,503.546783 483.650940,490.416809 491.617676,476.805023 
	C501.253723,460.341034 508.597382,442.904510 512.328003,424.143738 
	C514.006226,415.704376 514.798218,407.089020 516.003601,398.555145 
	C516.297729,396.472900 516.874573,394.399811 516.900269,392.317352 
	C516.941772,388.939972 517.773560,386.200256 512.305481,384.544342 
	C505.637238,382.524963 499.335571,377.944183 493.970551,373.225922 
	C477.919647,359.109894 467.799774,340.497040 465.537598,319.933136 
	C461.845673,286.372284 447.582062,256.253845 438.763824,224.412903 
	C435.640198,213.134171 431.704987,202.055191 429.092163,190.666626 
	C426.107758,177.658279 427.465424,164.569550 432.451050,152.232162 
	C437.645905,139.377075 445.145630,127.625633 457.759125,121.107376 
	C467.054291,116.303940 477.365204,113.370171 487.395111,110.135338 
	C491.031799,108.962425 495.198547,109.544395 499.067139,108.955681 
	C506.920044,107.760658 514.786926,117.311447 514.392151,126.109703 
	C513.592957,143.918457 496.542847,148.056122 484.111511,143.547363 
	C476.005768,140.607468 473.732208,140.869125 467.547607,146.934570 
	C461.807770,152.563858 456.203156,158.362534 454.892456,166.672729 
	C453.516907,175.394363 452.808350,184.127838 455.921783,192.801331 
	C460.146210,204.569885 463.769806,216.555084 468.040466,228.305832 
	C475.869690,249.847794 482.657349,271.921600 492.519196,292.509094 
	C497.723022,303.372650 501.356354,314.680847 506.377625,325.464417 
	C509.407318,331.970947 513.599121,338.185303 518.338135,343.593903 
	C527.552917,354.110748 541.543091,352.797943 551.620850,343.993134 
	C560.580505,336.165100 563.993042,325.614929 566.867981,314.847565 
	C568.935486,307.104095 570.631714,299.803284 576.729736,293.557953 
	C580.707886,289.483795 582.167786,282.810760 584.346741,277.144623 
	C592.800964,255.159576 601.370728,233.211655 609.315796,211.041458 
	C612.876038,201.106766 616.238831,190.815552 617.438110,180.426041 
	C618.175903,174.034012 615.492065,166.787354 612.803711,160.593231 
	C610.286865,154.794373 605.914490,149.744415 602.031311,144.612686 
	C598.843933,140.400528 594.435730,140.156479 589.637756,141.750565 
	C582.618164,144.082794 575.630554,145.670715 568.441650,141.855652 
	C558.251038,136.447693 555.618774,124.260422 563.052124,115.487663 
	C570.300415,106.933258 578.452820,103.760597 589.811951,110.024246 
	C600.361816,115.841583 611.256348,121.253105 621.023926,128.212112 
	C632.282654,136.233536 639.688171,147.310913 642.095886,161.524277 
	C645.261597,180.212112 640.786255,197.564331 634.644348,214.912628 
	C625.171326,241.670044 615.867065,268.494659 607.065186,295.477997 
	C604.135986,304.458099 603.155579,314.057465 600.960083,323.296722 
	C596.334412,342.762329 587.484558,359.948425 571.640381,372.604309 
	C565.954773,377.145813 558.946533,380.031586 551.863464,384.058746 
	C550.396057,408.518616 546.147705,433.274139 537.074768,457.107208 
	C528.769897,478.922791 517.842896,499.249573 503.639252,517.739563 
	C497.963379,525.128296 491.992035,532.397461 485.384460,538.943054 
	C465.074371,559.062622 442.687927,576.392761 416.391754,588.218872 
	C396.645294,597.099365 376.257233,603.625244 354.806793,607.106873 
	C332.670990,610.699646 310.394104,609.578674 288.322784,608.603088 
	C263.732361,607.516235 240.181000,600.152954 217.831635,589.474487 
	C216.208588,588.698975 213.962524,588.751648 212.098251,589.031921 
	C197.204132,591.271362 182.330872,593.650146 167.455780,596.014832 
	C166.021820,596.242859 164.618820,596.665405 162.723877,596.998779 
z"/>
<path fill="#000000" opacity="1.000000" stroke="none" 
	d="
M209.000137,403.835266 
	C209.000000,384.387451 209.000000,365.426605 209.000000,346.070374 
	C234.726318,346.070374 260.131470,346.070374 285.930573,346.070374 
	C285.930573,319.939331 285.930573,294.200958 285.930573,268.232849 
	C306.396545,268.232849 326.466370,268.232849 346.934143,268.232849 
	C346.934143,294.064270 346.934143,319.802643 346.934143,345.935120 
	C372.731903,345.935120 398.137024,345.935120 423.769440,345.935120 
	C423.769440,365.734619 423.769440,385.137817 423.769440,404.939026 
	C398.264191,404.939026 372.859039,404.939026 347.059998,404.939026 
	C347.059998,431.070160 347.059998,456.808533 347.059998,482.771851 
	C326.927185,482.771851 307.190704,482.771851 287.056213,482.771851 
	C287.056213,457.592682 287.056213,432.520874 287.056213,407.000000 
	C280.388123,407.000000 274.106689,407.000000 267.825226,407.000000 
	C249.494537,407.000000 231.163834,407.007843 212.833176,406.987915 
	C210.996338,406.985901 208.489990,407.774048 209.000137,403.835266 
z"/>
</svg>